HIERARCHY
ROOT Hips
{
 OFFSET 0.000000 0.000000 0.000000
 CHANNELS 6 Xposition Yposition Zposition Yrotation Xrotation Zrotation
 JOINT Chest
 {
  OFFSET 0.000000 9.585900 0.002600
  CHANNELS 3 Yrotation Xrotation Zrotation
  JOINT Chest2
  {
   OFFSET 0.000000 9.601200 -0.005300
   CHANNELS 3 Yrotation Xrotation Zrotation
   JOINT Chest3
   {
    OFFSET 0.000000 9.561800 0.000000
    CHANNELS 3 Yrotation Xrotation Zrotation
    JOINT Chest4
    {
     OFFSET 0.000000 9.552100 0.000000
     CHANNELS 3 Yrotation Xrotation Zrotation
     JOINT Neck
     {
      OFFSET 0.000000 14.453000 0.000000
      CHANNELS 3 Yrotation Xrotation Zrotation
      JOINT Head
      {
       OFFSET 0.000000 8.936500 -0.011300
       CHANNELS 3 Yrotation Xrotation Zrotation
       End Site
       {
        OFFSET 0.000000 17.073600 -0.006000
       }
      }
     }
     JOINT RightCollar
     {
      OFFSET -2.921100 9.558500 0.000000
      CHANNELS 3 Yrotation Xrotation Zrotation
      JOINT RightShoulder
      {
       OFFSET -13.519700 0.000000 0.000000
       CHANNELS 3 Yrotation Xrotation Zrotation
       JOINT RightElbow
       {
        OFFSET 0.000000 -29.696600 0.000000
        CHANNELS 3 Yrotation Xrotation Zrotation
        JOINT RightWrist
        {
         OFFSET 0.000000 -24.004700 0.000000
         CHANNELS 3 Yrotation Xrotation Zrotation
         End Site
         {
          OFFSET 0.000000 -17.728500 0.000000
         }
        }
       }
      }
     }
     JOINT LeftCollar
     {
      OFFSET 2.921100 9.558500 0.000000
      CHANNELS 3 Yrotation Xrotation Zrotation
      JOINT LeftShoulder
      {
       OFFSET 13.519700 0.000000 0.000000
       CHANNELS 3 Yrotation Xrotation Zrotation
       JOINT LeftElbow
       {
        OFFSET 0.000000 -29.696600 0.000000
        CHANNELS 3 Yrotation Xrotation Zrotation
        JOINT LeftWrist
        {
         OFFSET 0.000000 -24.004700 0.000000
         CHANNELS 3 Yrotation Xrotation Zrotation
         End Site
         {
          OFFSET 0.000000 -17.728500 0.000000
         }
        }
       }
      }
     }
    }
   }
  }
 }
 JOINT RightHip
 {
  OFFSET -7.771700 -0.012900 -0.001300
  CHANNELS 3 Yrotation Xrotation Zrotation
  JOINT RightKnee
  {
   OFFSET 0.000000 -40.869800 0.001200
   CHANNELS 3 Yrotation Xrotation Zrotation
   JOINT RightAnkle
   {
    OFFSET 0.000000 -39.717900 0.002100
    CHANNELS 3 Yrotation Xrotation Zrotation
    JOINT RightToe
    {
     OFFSET 0.000000 -4.965400 11.033500
     CHANNELS 3 Yrotation Xrotation Zrotation
     End Site
     {
      OFFSET 0.000000 -1.423100 5.872300
     }
    }
   }
  }
 }
 JOINT LeftHip
 {
  OFFSET 7.771700 -0.012900 -0.001300
  CHANNELS 3 Yrotation Xrotation Zrotation
  JOINT LeftKnee
  {
   OFFSET 0.000000 -40.869800 0.001200
   CHANNELS 3 Yrotation Xrotation Zrotation
   JOINT LeftAnkle
   {
    OFFSET 0.000000 -39.717900 0.002100
    CHANNELS 3 Yrotation Xrotation Zrotation
    JOINT LeftToe
    {
     OFFSET 0.000000 -4.965400 11.033500
     CHANNELS 3 Yrotation Xrotation Zrotation
     End Site
     {
      OFFSET 0.000000 -1.423100 5.872300
     }
    }
   }
  }
 }
}
MOTION
Frames: 15
Frame Time: 0.008333
-14.911099 57.148702 62.028718 -179.830612 -34.548902 -0.969725 3.114357 20.213386 4.256230 0.345550 2.707141 0.344025 0.573431 4.420757 0.570841 2.628858 17.633776 2.625912 -1.946821 17.327272 -0.340498 -3.450984 -3.789666 0.004600 3.747331 -3.523765 -0.721748 16.387068 -19.374315 -20.164042 145.829965 -77.516128 -105.588845 14.364533 -15.265849 -41.244940 -7.253652 -4.221354 -2.947415 -2.632224 -10.543982 -1.019810 33.329842 -21.446344 -74.919330 6.910666 -8.684627 29.246193 12.949325 -36.990950 -7.112185 -4.080422 66.727366 -3.150474 4.755594 7.009531 9.173400 -0.049195 0.161292 -0.021742 -9.807404 -44.376689 3.510700 26.166038 66.469179 24.484367 -13.706145 31.114023 -0.513330 0.244192 -16.103043 -5.919465
-14.913537 57.147455 62.029623 -179.840409 -34.557252 -0.965770 3.123895 20.224730 4.256684 0.346709 2.713694 0.341731 0.573547 4.420351 0.571720 2.633830 17.661287 2.618688 -1.937299 17.237347 -0.338135 -3.431302 -3.932036 -0.009855 3.746185 -3.562939 -0.721298 16.379207 -19.369445 -20.163901 145.882352 -77.522220 -105.641629 14.370569 -15.266356 -41.249414 -7.258166 -4.258540 -2.941657 -2.627315 -10.543818 -1.011464 33.326073 -21.441068 -74.924077 6.907983 -8.671186 29.241382 12.958658 -36.984521 -7.108267 -4.092602 66.732789 -3.167051 4.756532 7.004636 9.180049 -0.052511 0.162041 -0.021387 -9.782493 -44.369619 3.497663 26.158644 66.465013 24.486982 -13.699878 31.109656 -0.504011 0.241441 -16.087643 -5.924134
-14.916095 57.146837 62.029691 -179.854073 -34.568832 -0.961199 3.137732 20.247227 4.255321 0.347434 2.714631 0.342739 0.573816 4.411406 0.575058 2.636069 17.682003 2.613772 -1.918375 17.099216 -0.358848 -3.423600 -4.028668 -0.008972 3.756542 -3.587586 -0.729874 16.359364 -19.369415 -20.155517 145.913894 -77.531779 -105.671266 14.370900 -15.260359 -41.248535 -7.257387 -4.284643 -2.942827 -2.619815 -10.545498 -1.005343 33.309416 -21.435065 -74.918904 6.914716 -8.668556 29.227501 12.986976 -36.972863 -7.113280 -4.072539 66.738730 -3.138140 4.736032 6.999737 9.184908 -0.047629 0.163197 -0.022240 -9.734234 -44.359795 3.471106 26.139133 66.459157 24.491909 -13.691932 31.115193 -0.494454 0.234608 -16.085656 -5.926838
-14.919483 57.145513 62.030958 -179.857824 -34.568816 -0.958001 3.140184 20.258059 4.249285 0.347103 2.717944 0.342140 0.579076 4.413748 0.575831 2.633926 17.685219 2.613274 -1.911227 17.016291 -0.368458 -3.406634 -4.196069 -0.023279 3.757754 -3.607091 -0.730140 16.352463 -19.361999 -20.154639 145.954817 -77.539324 -105.711043 14.383059 -15.262096 -41.251754 -7.258775 -4.305315 -2.948461 -2.621386 -10.543783 -0.995835 33.306995 -21.429881 -74.915024 6.914165 -8.670240 29.224212 13.042516 -36.969501 -7.151570 -4.092829 66.745474 -3.118077 4.736220 6.997074 9.185922 -0.047706 0.161192 -0.021668 -9.680908 -44.363751 3.433144 26.107542 66.450296 24.494371 -13.692177 31.127849 -0.491046 0.237410 -16.080154 -5.930642
-14.912921 57.146076 62.030055 -179.877140 -34.582692 -1.004703 3.176912 20.271633 4.309745 0.346652 2.730143 0.338245 0.577591 4.418189 0.575333 2.638475 17.672163 2.616273 -1.907813 16.941449 -0.382733 -3.390033 -4.376825 -0.039985 3.758055 -3.612848 -0.732555 16.340591 -19.353223 -20.143660 145.980841 -77.533777 -105.730705 14.372944 -15.248915 -41.257150 -7.259141 -4.312445 -2.948822 -2.621775 -10.542086 -0.993973 33.304220 -21.419901 -74.915685 6.909389 -8.671184 29.224616 13.039692 -36.959960 -7.089995 -4.105590 66.733459 -3.105578 4.733445 7.006708 9.181218 -0.049238 0.157348 -0.021738 -9.666958 -44.347750 3.471996 26.094364 66.450103 24.516171 -13.642934 31.155091 -0.436863 0.192878 -16.096928 -5.954645
-14.920974 57.145935 62.030155 -179.882239 -34.585797 -0.969968 3.169299 20.287035 4.270117 0.347318 2.732129 0.340837 0.577076 4.436471 0.570558 2.640665 17.669594 2.614684 -1.901803 16.878222 -0.381857 -3.375002 -4.604510 -0.067385 3.775734 -3.633090 -0.736932 16.311781 -19.355533 -20.121224 145.976745 -77.526120 -105.718471 14.361567 -15.237012 -41.259712 -7.258359 -4.339260 -2.942300 -2.627305 -10.539306 -0.988059 33.295238 -21.392045 -74.904790 6.912862 -8.675485 29.220914 13.090611 -36.952478 -7.149889 -4.094444 66.749881 -3.081749 4.729803 6.996279 9.185250 -0.048989 0.157084 -0.020553 -9.541190 -44.357945 3.372919 26.033764 66.447395 24.512897 -13.706359 31.165403 -0.481050 0.238173 -16.091318 -5.935524
-14.922542 57.146509 62.029829 -179.884343 -34.589981 -0.972502 3.173430 20.305579 4.271175 0.348307 2.736768 0.339734 0.576242 4.428836 0.573238 2.636203 17.691014 2.611603 -1.893976 16.809913 -0.386110 -3.365302 -4.840536 -0.099499 3.785141 -3.664571 -0.738209 16.301411 -19.349695 -20.108804 145.986634 -77.534514 -105.716148 14.343428 -15.209401 -41.257460 -7.265973 -4.368419 -2.934295 -2.638174 -10.530711 -0.983557 33.309282 -21.380370 -74.903104 6.910903 -8.681280 29.222178 13.107707 -36.946293 -7.158930 -4.099501 66.753780 -3.071597 4.731706 6.992525 9.184512 -0.049346 0.156300 -0.019864 -9.530261 -44.355354 3.371149 26.114637 66.424241 24.590719 -13.745030 31.190697 -0.478522 0.233243 -16.096568 -5.933616
-14.923005 57.148012 62.028601 -179.895519 -34.598840 -0.972544 3.188224 20.330048 4.276185 0.347835 2.746263 0.336784 0.576912 4.426300 0.576138 2.634871 17.698559 2.610160 -1.892552 16.648191 -0.415695 -3.362215 -4.987049 -0.115048 3.798682 -3.692598 -0.742652 16.285601 -19.341833 -20.093749 146.012209 -77.547683 -105.731864 14.367730 -15.204928 -41.265446 -7.270813 -4.394582 -2.932925 -2.648660 -10.528755 -0.974454 33.310532 -21.361245 -74.895616 6.904171 -8.691995 29.221192 13.124141 -36.936307 -7.158125 -4.109280 66.756319 -3.069844 4.730701 6.989951 9.183327 -0.047035 0.155383 -0.019644 -9.483962 -44.343208 3.359203 26.084062 66.416070 24.581207 -13.766684 31.198869 -0.490715 0.243862 -16.095941 -5.924463
-14.921672 57.149507 62.027812 -179.909820 -34.602987 -0.977227 3.207916 20.370817 4.279986 0.348663 2.731116 0.344119 0.577699 4.429694 0.572146 2.638786 17.706446 2.611659 -1.896843 16.519510 -0.434522 -3.363864 -5.176346 -0.141147 3.821087 -3.714673 -0.760460 16.264503 -19.334448 -20.067612 146.016299 -77.552105 -105.744299 14.365140 -15.196948 -41.262934 -7.286547 -4.427007 -2.920125 -2.642901 -10.527682 -0.974681 33.300594 -21.338381 -74.886923 6.889570 -8.712059 29.216894 13.132616 -36.932450 -7.143733 -4.116438 66.756130 -3.072390 4.727866 6.989264 9.182197 -0.047986 0.154715 -0.018569 -9.457282 -44.336637 3.366871 26.071238 66.409226 24.580449 -13.786033 31.215610 -0.496967 0.263915 -16.099873 -5.924897
-14.919097 57.149249 62.029806 -179.901530 -34.585466 -0.997972 3.207493 20.372251 4.294175 0.349353 2.722913 0.345199 0.578581 4.446476 0.571803 2.640008 17.715766 2.612547 -1.900206 16.443623 -0.443744 -3.374468 -5.426505 -0.184199 3.836386 -3.746095 -0.773941 16.257004 -19.328565 -20.058337 146.030005 -77.569368 -105.758671 14.368632 -15.187497 -41.270805 -7.304306 -4.466730 -2.910136 -2.633117 -10.523539 -0.977506 33.285726 -21.313486 -74.877161 6.892639 -8.727574 29.210759 13.117097 -36.950138 -7.126233 -4.115317 66.753549 -3.073418 4.727265 6.987923 9.181146 -0.057242 0.155976 -0.016452 -9.495224 -44.354501 3.415700 26.129044 66.388819 24.621566 -13.859785 31.257747 -0.527589 0.294642 -16.123713 -5.917619
-14.916155 57.150119 62.030207 -179.896341 -34.578839 -1.015739 3.207728 20.385156 4.308364 0.351676 2.714319 0.344997 0.578284 4.462523 0.571469 2.635787 17.758713 2.618186 -1.898813 16.334209 -0.459543 -3.391941 -5.678276 -0.230718 3.861428 -3.810808 -0.797809 16.252543 -19.321044 -20.049664 146.057358 -77.590973 -105.785017 14.372197 -15.169430 -41.286452 -7.326190 -4.539208 -2.899025 -2.628044 -10.518376 -0.976004 33.287496 -21.287769 -74.869820 6.885939 -8.734158 29.206478 13.097712 -36.956581 -7.103365 -4.119267 66.751646 -3.082910 4.729382 6.984636 9.179836 -0.053122 0.157086 -0.015432 -9.548430 -44.362559 3.464171 26.169476 66.382891 24.639718 -13.877123 31.290048 -0.533099 0.299428 -16.146689 -5.920310
-14.911927 57.150389 62.031291 -179.895593 -34.567141 -1.036514 3.213338 20.382740 4.329049 0.350511 2.726086 0.344126 0.576952 4.481817 0.573822 2.636268 17.750301 2.620336 -1.908024 16.222636 -0.487579 -3.412179 -5.892132 -0.273153 3.874410 -3.840455 -0.813864 16.261598 -19.310845 -20.048246 146.103554 -77.641898 -105.807847 14.374813 -15.145741 -41.305928 -7.336477 -4.574284 -2.894404 -2.634982 -10.514467 -0.974149 33.282005 -21.262862 -74.859162 6.888114 -8.747511 29.201175 13.074167 -36.970672 -7.069802 -4.135795 66.747661 -3.109181 4.733130 6.984685 9.181305 -0.051952 0.157201 -0.018077 -9.620158 -44.377371 3.531281 26.213489 66.382956 24.652242 -13.880592 31.324513 -0.530288 0.302021 -16.175368 -5.928719
-14.907197 57.151328 62.031131 -179.908305 -34.564879 -1.052128 3.231317 20.390294 4.353643 0.348842 2.739826 0.345311 0.578502 4.471423 0.572853 2.632881 17.763308 2.628728 -1.936843 16.050361 -0.535034 -3.421055 -6.042372 -0.314063 3.887921 -3.864034 -0.834239 16.272654 -19.303312 -20.050564 146.134373 -77.669724 -105.835780 14.386459 -15.136140 -41.316045 -7.347054 -4.605189 -2.892112 -2.633462 -10.507551 -0.970943 33.276113 -21.245627 -74.856975 6.907648 -8.740216 29.199541 13.062094 -36.975736 -7.030766 -4.186073 66.742431 -3.166531 4.748771 6.985816 9.186105 -0.053497 0.156480 -0.019471 -9.690175 -44.384612 3.604203 26.263609 66.388367 24.662915 -13.863044 31.375082 -0.511551 0.297455 -16.223012 -5.942816
-14.896191 57.151336 62.032015 -179.914257 -34.555876 -1.110073 3.254392 20.394628 4.420657 0.348939 2.741630 0.345908 0.578654 4.474015 0.573854 2.628075 17.766251 2.634269 -1.953195 15.938938 -0.568745 -3.445549 -6.251203 -0.368590 3.927597 -3.874033 -0.876362 16.253662 -19.311985 -20.041747 146.169474 -77.692890 -105.870675 14.405441 -15.130041 -41.330807 -7.355224 -4.633418 -2.892566 -2.659824 -10.493316 -0.945869 33.322324 -21.236183 -74.883897 6.915260 -8.731687 29.196796 13.015243 -36.991128 -6.942778 -4.210034 66.725333 -3.194692 4.752582 6.994515 9.184991 -0.055017 0.155827 -0.020982 -9.803461 -44.390829 3.730236 26.309272 66.388680 24.670858 -13.806785 31.438444 -0.463039 0.252944 -16.280134 -5.965505
-14.896765 57.151212 62.032229 -179.918832 -34.551644 -1.101632 3.250034 20.405613 4.421203 0.348080 2.743441 0.346587 0.577294 4.476975 0.574846 2.625003 17.769963 2.632384 -1.972665 15.828211 -0.603380 -3.470709 -6.457450 -0.423428 3.951686 -3.889548 -0.906201 16.253783 -19.313393 -20.044690 146.192847 -77.704445 -105.907954 14.372554 -15.123461 -41.322322 -7.360080 -4.660580 -2.892793 -2.657517 -10.488174 -0.946791 33.295962 -21.213199 -74.876956 6.909558 -8.765155 29.192132 13.004222 -36.996607 -6.934381 -4.211583 66.730190 -3.220322 4.750902 6.988097 9.194183 -0.056934 0.157325 -0.024016 -9.845724 -44.406410 3.758949 26.305693 66.393485 24.625569 -13.771651 31.530025 -0.415322 0.245373 -16.358229 -5.997059
